<svg width="1254" height="1254" viewBox="0 0 1254 1254" fill="none" xmlns="http://www.w3.org/2000/svg">
<g clip-path="url(#clip0_4_3671)">
<path d="M0 0H1254V1254H0V0Z" fill="#1A1A1B"/>
<path d="M991.297 341.905C1008.92 340.69 1025.59 353.583 1028.07 371.16C1029.39 380.536 1028.73 391.379 1028.49 400.922C1027.62 434.693 1026.69 468.467 1025.77 502.235C1025.57 509.616 1023.52 516.669 1017.74 521.656C1013.27 525.48 1007.44 527.333 1001.58 526.791C988.921 525.607 979.651 511.336 971.574 501.656C945.11 534.351 918.163 571.356 892.103 604.892C860.863 644.469 829.403 683.877 797.741 723.12L758.749 771.926C751.775 780.621 744.868 789.518 737.57 797.925C721.276 816.686 691.188 820.905 669.751 808.91C665.514 806.522 661.595 803.613 658.074 800.258C653.109 795.463 646.924 787.148 642.491 781.533L618.685 751.5L538.24 650.451L513.306 618.826C508.774 613.064 504.249 607.512 499.628 601.848C494.679 595.783 481.904 595.274 477.839 601.753C469.148 615.605 462.846 632.621 455.942 647.702L387.267 798.733L368.98 839.555C365.736 846.811 361.184 857.851 357.169 864.213C351.054 873.783 342.756 881.762 332.956 887.499C315.453 897.584 298.216 898.667 279.054 893.597C269.98 890.444 263.363 886.991 255.801 880.855C241.627 869.467 232.687 852.806 231.027 834.7C228.945 812.932 236.741 799.903 246.023 781.307L262.355 748.377L318.087 636.913L378.208 517.497L394.799 484.63C400.454 473.439 405.548 461.89 413.727 452.035C434.269 427.288 474.2 420.692 501.228 438.377C515.191 447.513 531.632 467.951 543.308 480.891L632.939 580.119L659.538 609.292C663.022 613.107 671.172 622.42 674.919 625.445C681.838 631.047 690.686 633.705 699.552 632.841C706.048 632.217 712.147 629.437 716.874 624.943C720.94 621.018 730.228 608.71 734.11 603.813L768.724 559.995L881.174 417.619L864.586 406.037C857.435 400.989 850.246 395.859 848.868 386.395C848.072 380.561 849.726 374.658 853.442 370.089C859.229 363.024 867.544 361.321 876.116 360.219C914.501 355.283 952.972 346.637 991.297 341.905Z" fill="#FE6300"/>
<path d="M946.96 598.382C953.903 597.934 964.606 601.823 965.758 609.424C967.962 623.926 966.97 640.52 966.945 655.319L966.884 732.353L966.909 805.499C966.921 823.899 969.333 849.707 960.908 866.068C953.903 879.674 941.804 889.948 927.244 894.651C909.432 900.314 892.489 898.024 876.122 889.538C860.006 880.17 848.489 862.762 848.158 843.946C847.619 813.606 848.036 783.181 847.913 752.829C847.877 743.534 846.854 726.316 851.324 718.282C856.584 708.828 864.807 698.695 871.438 689.878L904.631 645.786L925.597 617.92C932.883 608.242 934.983 602.047 946.96 598.382Z" fill="#FE6300"/>
</g>
<defs>
<clipPath id="clip0_4_3671">
<rect width="1254" height="1254" fill="white"/>
</clipPath>
</defs>
</svg>
